<svg class="animated" id="freepik_stories-healthy-lifestyle" xmlns="http://www.w3.org/2000/svg" viewBox="0 0 500 500" version="1.1" xmlns:xlink="http://www.w3.org/1999/xlink" xmlns:svgjs="http://svgjs.com/svgjs"><style>svg#freepik_stories-healthy-lifestyle:not(.animated) .animable {opacity: 0;}svg#freepik_stories-healthy-lifestyle.animated #freepik--background-simple--inject-4 {animation: 1s 1 forwards cubic-bezier(.36,-0.01,.5,1.38) slideDown,6s Infinite  linear spin;animation-delay: 0s,1s;}svg#freepik_stories-healthy-lifestyle.animated #freepik--Clouds--inject-4 {animation: 1s 1 forwards cubic-bezier(.36,-0.01,.5,1.38) lightSpeedRight,6s Infinite  linear shake;animation-delay: 0s,1s;}svg#freepik_stories-healthy-lifestyle.animated #freepik--Circle--inject-4 {animation: 1s 1 forwards cubic-bezier(.36,-0.01,.5,1.38) fadeIn;animation-delay: 0s;}svg#freepik_stories-healthy-lifestyle.animated #freepik--Floor--inject-4 {animation: 1s 1 forwards cubic-bezier(.36,-0.01,.5,1.38) zoomIn;animation-delay: 0s;}svg#freepik_stories-healthy-lifestyle.animated #freepik--Clock--inject-4 {animation: 1s 1 forwards cubic-bezier(.36,-0.01,.5,1.38) slideUp,3s Infinite  linear heartbeat;animation-delay: 0s,1s;}svg#freepik_stories-healthy-lifestyle.animated #freepik--Ball--inject-4 {animation: 1s 1 forwards cubic-bezier(.36,-0.01,.5,1.38) slideUp,3s Infinite  linear floating;animation-delay: 0s,1s;}svg#freepik_stories-healthy-lifestyle.animated #freepik--Apple--inject-4 {animation: 1s 1 forwards cubic-bezier(.36,-0.01,.5,1.38) lightSpeedRight,3s Infinite  linear heartbeat;animation-delay: 0s,1s;}svg#freepik_stories-healthy-lifestyle.animated #freepik--Bottle--inject-4 {animation: 1s 1 forwards cubic-bezier(.36,-0.01,.5,1.38) lightSpeedRight,3s Infinite  linear floating;animation-delay: 0s,1s;}svg#freepik_stories-healthy-lifestyle.animated #freepik--Heart--inject-4 {animation: 1s 1 forwards cubic-bezier(.36,-0.01,.5,1.38) zoomOut,3s Infinite  linear heartbeat;animation-delay: 0s,1s;}svg#freepik_stories-healthy-lifestyle.animated #freepik--Carrot--inject-4 {animation: 1s 1 forwards cubic-bezier(.36,-0.01,.5,1.38) lightSpeedLeft,3s Infinite  linear floating;animation-delay: 0s,1s;}svg#freepik_stories-healthy-lifestyle.animated #freepik--Orange--inject-4 {animation: 1s 1 forwards cubic-bezier(.36,-0.01,.5,1.38) zoomIn,3s Infinite  linear heartbeat;animation-delay: 0s,1s;}svg#freepik_stories-healthy-lifestyle.animated #freepik--Plants--inject-4 {animation: 1s 1 forwards cubic-bezier(.36,-0.01,.5,1.38) slideUp;animation-delay: 0s;}svg#freepik_stories-healthy-lifestyle.animated #freepik--character-2--inject-4 {animation: 1s 1 forwards cubic-bezier(.36,-0.01,.5,1.38) slideLeft;animation-delay: 0s;}svg#freepik_stories-healthy-lifestyle.animated #freepik--character-1--inject-4 {animation: 1s 1 forwards cubic-bezier(.36,-0.01,.5,1.38) slideRight;animation-delay: 0s;}            @keyframes slideDown {                0% {                    opacity: 0;                    transform: translateY(-30px);                }                100% {                    opacity: 1;                    transform: translateY(0);                }            }                 @keyframes spin {             from {                 transform: rotate(0);               }               to {                 transform: rotate(360deg);               }         }                 @keyframes lightSpeedRight {              from {                transform: translate3d(50%, 0, 0) skewX(-20deg);                opacity: 0;              }              60% {                transform: skewX(10deg);                opacity: 1;              }              80% {                transform: skewX(-2deg);              }              to {                opacity: 1;                transform: translate3d(0, 0, 0);              }            }                    @keyframes shake {                10%, 90% {                    transform: translate3d(-1px, 0, 0);                  }                  20%, 80% {                    transform: translate3d(2px, 0, 0);                  }                  30%, 50%, 70% {                    transform: translate3d(-4px, 0, 0);                  }                  40%, 60% {                    transform: translate3d(4px, 0, 0);                  }            }                    @keyframes fadeIn {                0% {                    opacity: 0;                }                100% {                    opacity: 1;                }            }                    @keyframes zoomIn {                0% {                    opacity: 0;                    transform: scale(0.5);                }                100% {                    opacity: 1;                    transform: scale(1);                }            }                    @keyframes slideUp {                0% {                    opacity: 0;                    transform: translateY(30px);                }                100% {                    opacity: 1;                    transform: inherit;                }            }                    @keyframes heartbeat {                0% {                    transform: scale(1);                }                10% {                    transform: scale(1.1);                }                30% {                    transform: scale(1);                }                40% {                    transform: scale(1);                }                50% {                    transform: scale(1.1);                }                60% {                    transform: scale(1);                }                100% {                    transform: scale(1);                }            }                    @keyframes floating {                0% {                    opacity: 1;                    transform: translateY(0px);                }                50% {                    transform: translateY(-10px);                }                100% {                    opacity: 1;                    transform: translateY(0px);                }            }                    @keyframes zoomOut {                0% {                    opacity: 0;                    transform: scale(1.5);                }                100% {                    opacity: 1;                    transform: scale(1);                }            }                    @keyframes lightSpeedLeft {              from {                transform: translate3d(-50%, 0, 0) skewX(20deg);                opacity: 0;              }              60% {                transform: skewX(-10deg);                opacity: 1;              }              80% {                transform: skewX(2deg);              }              to {                opacity: 1;                transform: translate3d(0, 0, 0);              }            }                    @keyframes slideLeft {                0% {                    opacity: 0;                    transform: translateX(-30px);                }                100% {                    opacity: 1;                    transform: translateX(0);                }            }                    @keyframes slideRight {                0% {                    opacity: 0;                    transform: translateX(30px);                }                100% {                    opacity: 1;                    transform: translateX(0);                }            }        </style><g id="freepik--background-simple--inject-4" class="animable" style="transform-origin: 252.37px 250.836px;"><path d="M467.56,119.31q-2.37-4-5-7.9C439.39,77.06,399.51,53.57,360.26,43a231.78,231.78,0,0,0-52.71-7.69c-116.61-4-163.06,87.95-201.6,111.67S8.11,211.17,12.06,296.16s65.23,165,183.82,170S322.38,417.71,388.59,398c43.82-13.08,75-57.26,90.2-98.09C499.56,244.22,498.58,171.94,467.56,119.31Z" style="fill: rgb(146, 227, 169); transform-origin: 252.37px 250.836px;" id="elanq2yofy4re" class="animable"></path><g id="elz9gifb7ggnj"><path d="M467.56,119.31q-2.37-4-5-7.9C439.39,77.06,399.51,53.57,360.26,43a231.78,231.78,0,0,0-52.71-7.69c-116.61-4-163.06,87.95-201.6,111.67S8.11,211.17,12.06,296.16s65.23,165,183.82,170S322.38,417.71,388.59,398c43.82-13.08,75-57.26,90.2-98.09C499.56,244.22,498.58,171.94,467.56,119.31Z" style="fill: rgb(255, 255, 255); opacity: 0.7; transform-origin: 252.37px 250.836px;" class="animable"></path></g></g><g id="freepik--Clouds--inject-4" class="animable" style="transform-origin: 272.888px 53.7569px;"><path d="M430.26,45.45c-2.54-2.64-7-5.07-14.62-5.26C398.42,39.77,403,52,398.42,54.89s-5.88-1.68-10.5,1.26-2.52,8.82-6.29,9.66S372.81,62,368.19,65s-4.62,5.46-6.72,5.46-6.3-1.68-8.82,0-5.46,3.78-5.46,3.78h45.09" style="fill: none; stroke: rgb(38, 50, 56); stroke-linecap: round; stroke-linejoin: round; transform-origin: 388.725px 57.2097px;" id="elvwuorxezdb8" class="animable"></path><path d="M435,53c-.41-.2-.84-.4-1.3-.6a11.39,11.39,0,0,0-1.55-4.43" style="fill: none; stroke: rgb(38, 50, 56); stroke-linecap: round; stroke-linejoin: round; transform-origin: 433.575px 50.485px;" id="eldww39h3ad1v" class="animable"></path><path d="M398.05,74.21h55.38s1.26-3.78-3.36-6.3-6.71-.42-8.39-2.52c-1.5-1.87,3.33-6.4-4.49-11.23" style="fill: none; stroke: rgb(38, 50, 56); stroke-linecap: round; stroke-linejoin: round; transform-origin: 425.818px 64.185px;" id="el25radfeu5ax" class="animable"></path><path d="M124.44,63c-1-1-2.71-2-5.68-2-6.68-.16-4.89,4.57-6.68,5.71s-2.28-.65-4.08.49-1,3.42-2.44,3.75-3.43-1.47-5.22-.33-1.79,2.12-2.61,2.12-2.44-.65-3.42,0-2.12,1.47-2.12,1.47h17.5" style="fill: none; stroke: rgb(38, 50, 56); stroke-linecap: round; stroke-linejoin: round; transform-origin: 108.315px 67.603px;" id="el9uc7dn2x7rf" class="animable"></path><path d="M126.28,66l-.51-.23a4.26,4.26,0,0,0-.6-1.72" style="fill: none; stroke: rgb(38, 50, 56); stroke-linecap: round; stroke-linejoin: round; transform-origin: 125.725px 65.025px;" id="elh48q0occbvf" class="animable"></path><path d="M111.94,74.21h21.49a2.11,2.11,0,0,0-1.3-2.45c-1.79-1-2.61-.16-3.26-1s1.29-2.49-1.74-4.36" style="fill: none; stroke: rgb(38, 50, 56); stroke-linecap: round; stroke-linejoin: round; transform-origin: 122.713px 70.305px;" id="elmoy5votk9sr" class="animable"></path><path d="M365.31,35.28c-1-1-2.7-2-5.68-2C353,33.08,354.74,37.81,353,39s-2.28-.66-4.08.49-1,3.42-2.44,3.75-3.43-1.47-5.22-.33S339.42,45,338.6,45s-2.44-.65-3.42,0-2.12,1.47-2.12,1.47h17.5" style="fill: none; stroke: rgb(38, 50, 56); stroke-linecap: round; stroke-linejoin: round; transform-origin: 349.185px 39.8719px;" id="elhxrn9nip49t" class="animable"></path><path d="M367.15,38.2l-.51-.23a4.26,4.26,0,0,0-.6-1.72" style="fill: none; stroke: rgb(38, 50, 56); stroke-linecap: round; stroke-linejoin: round; transform-origin: 366.595px 37.225px;" id="elkzsff23wnrs" class="animable"></path><path d="M352.81,46.45H374.3A2.11,2.11,0,0,0,373,44c-1.79-1-2.61-.16-3.26-1S371,40.54,368,38.66" style="fill: none; stroke: rgb(38, 50, 56); stroke-linecap: round; stroke-linejoin: round; transform-origin: 363.583px 42.555px;" id="elnzlym36ve8d" class="animable"></path></g><g id="freepik--Circle--inject-4" class="animable" style="transform-origin: 264px 244px;"><circle cx="264" cy="244" r="179" style="fill: none; stroke: rgb(38, 50, 56); stroke-linejoin: round; stroke-dasharray: 2.00131, 2.00131; transform-origin: 264px 244px;" id="elcdu2yzb2dc4" class="animable"></circle></g><g id="freepik--Floor--inject-4" class="animable" style="transform-origin: 256.81px 458.95px;"><line x1="397.63" y1="458.95" x2="437.36" y2="458.95" style="fill: rgb(255, 255, 255); stroke: rgb(38, 50, 56); stroke-miterlimit: 10; transform-origin: 417.495px 458.95px;" id="el71l4fbb55m3" class="animable"></line><line x1="76.26" y1="458.95" x2="390.56" y2="458.95" style="fill: rgb(255, 255, 255); stroke: rgb(38, 50, 56); stroke-miterlimit: 10; transform-origin: 233.41px 458.95px;" id="el6p56ca3j1h" class="animable"></line></g><g id="freepik--Clock--inject-4" class="animable" style="transform-origin: 423.5px 320.958px;"><path d="M409.16,351.26a2.18,2.18,0,0,1-1.07-.27,2.26,2.26,0,0,1-.93-3.07l7.41-13.86a2.27,2.27,0,0,1,4,2.14l-7.42,13.86A2.26,2.26,0,0,1,409.16,351.26Z" style="fill: rgb(38, 50, 56); transform-origin: 412.843px 342.099px;" id="ell9jvc541esr" class="animable"></path><path d="M437.85,351.26a2.26,2.26,0,0,1-2-1.2l-7.42-13.86a2.27,2.27,0,0,1,4-2.14l7.41,13.86a2.26,2.26,0,0,1-.93,3.07A2.15,2.15,0,0,1,437.85,351.26Z" style="fill: rgb(38, 50, 56); transform-origin: 434.157px 342.099px;" id="el4pgs17jnpc5" class="animable"></path><circle cx="423.5" cy="321.59" r="20.31" style="fill: rgb(146, 227, 169); stroke: rgb(38, 50, 56); stroke-linecap: round; stroke-linejoin: round; transform-origin: 423.5px 321.59px;" id="elb51lm2e8j9" class="animable"></circle><circle cx="423.5" cy="321.59" r="17.41" style="fill: rgb(255, 255, 255); stroke: rgb(38, 50, 56); stroke-linecap: round; stroke-linejoin: round; transform-origin: 423.5px 321.59px;" id="eloqgurv11k" class="animable"></circle><path d="M423.82,308.7s-.32,14.18-.32,12.89l3.54,7.09" style="fill: none; stroke: rgb(38, 50, 56); stroke-miterlimit: 10; transform-origin: 425.27px 318.69px;" id="ele8jfp5kfelg" class="animable"></path><path d="M435,300.32a11.27,11.27,0,0,0-22.31,0Z" style="fill: rgb(255, 255, 255); stroke: rgb(38, 50, 56); stroke-linecap: round; stroke-linejoin: round; transform-origin: 423.845px 295.488px;" id="el1wgc0ldsknf" class="animable"></path><circle cx="423.5" cy="321.59" r="1.29" style="fill: rgb(38, 50, 56); stroke: rgb(38, 50, 56); stroke-miterlimit: 10; transform-origin: 423.5px 321.59px;" id="el4vk22ow14bp" class="animable"></circle></g><g id="freepik--Ball--inject-4" class="animable" style="transform-origin: 436.311px 219.155px;"><path d="M458.68,219.18a22.38,22.38,0,0,1-22.39,22.39,20.87,20.87,0,0,1-3.73-.32,22.39,22.39,0,0,1,0-44.14,21.83,21.83,0,0,1,3.73-.31A22.38,22.38,0,0,1,458.68,219.18Z" style="fill: rgb(146, 227, 169); stroke: rgb(38, 50, 56); stroke-linecap: round; stroke-linejoin: round; transform-origin: 436.311px 219.185px;" id="eld76221j49g6" class="animable"></path><path d="M434.11,196.74c9.8,2.38,17.11,11.91,17.11,22.44a22.38,22.38,0,0,1-18.66,22.07" style="fill: none; stroke: rgb(38, 50, 56); stroke-linecap: round; stroke-linejoin: round; transform-origin: 441.89px 218.995px;" id="eldovdo1t7ced" class="animable"></path><path d="M420.4,203.05c3.81,0,9.64,1.25,14.62,7.34,8.23,10.05,19.19,11,22.85,1.83" style="fill: none; stroke: rgb(38, 50, 56); stroke-linecap: round; stroke-linejoin: round; transform-origin: 439.135px 210.8px;" id="el71071acjnjm" class="animable"></path><path d="M414,220.9s30.41,13.93,44.67-1.72" style="fill: none; stroke: rgb(38, 50, 56); stroke-linecap: round; stroke-linejoin: round; transform-origin: 436.335px 222.896px;" id="elvovtlnktfch" class="animable"></path><path d="M422.56,236.58a22.39,22.39,0,0,0,11.55-1.52c7.31-3.2,13.8-4.87,16.9-2.74a3.81,3.81,0,0,1,1.76,2.39" style="fill: none; stroke: rgb(38, 50, 56); stroke-linecap: round; stroke-linejoin: round; transform-origin: 437.665px 234.071px;" id="eld62o2st2rfr" class="animable"></path></g><g id="freepik--Apple--inject-4" class="animable" style="transform-origin: 395.96px 127.853px;"><path d="M415,130.44c0,10-8.15,20.54-16,20.54-1.92,0-6.89,0-8.66-.67-9.68-3.74-13.42-13-13.42-21.06,0-4.18,1.26-8.74,4.57-11.53,4.39-3.7,9.23-1.37,14.33-1.37,4.44,0,10.66-1.82,14,.68C414.19,120.17,415,125.48,415,130.44Z" style="fill: rgb(255, 255, 255); stroke: rgb(38, 50, 56); stroke-linejoin: round; transform-origin: 395.96px 133.303px;" id="elkwzti7a6rvf" class="animable"></path><path d="M409.78,123.74c-.64,1.12-2.58,1.2-4.33.19s-2.64-2.73-2-3.84,2.58-1.2,4.33-.19S410.43,122.63,409.78,123.74Z" style="fill: rgb(255, 255, 255); stroke: rgb(38, 50, 56); stroke-linejoin: round; transform-origin: 406.617px 121.917px;" id="elg1ynrr1l78u" class="animable"></path><polygon points="394.85 117.88 395.19 117.09 399.94 106.02 396.79 105.53 393.64 116.67 394.85 117.88" style="fill: rgb(38, 50, 56); stroke: rgb(38, 50, 56); stroke-linejoin: round; transform-origin: 396.79px 111.705px;" id="elcq9ae8tgt3q" class="animable"></polygon><path d="M395.58,110.37s-2.18-4.84-5.33-5.56-11.86,3.39-11.86,3.39,4.35,3.14,7.74,4.11S395.58,110.37,395.58,110.37Z" style="fill: rgb(146, 227, 169); stroke: rgb(38, 50, 56); stroke-linejoin: round; transform-origin: 386.985px 108.617px;" id="elhi2hnmkdkpl" class="animable"></path></g><g id="freepik--Bottle--inject-4" class="animable" style="transform-origin: 265.165px 72.7417px;"><path d="M275.61,98.21c-.7-3.95-1.69-14.24-.84-18a26,26,0,0,0,.56-7V59.3a11.82,11.82,0,0,0-.14-5.63c-.85-3-7.33-9.31-7.33-9.31V42.11l-.41,0L265.66,42v0l-.52,0-.52,0v0l-1.79.07-.41,0v2.25s-6.48,6.35-7.33,9.31A11.82,11.82,0,0,0,255,59.3V73.12a26,26,0,0,0,.56,7c.85,3.8-.14,14.09-.84,18s-.42,6.91,1.83,8c1.88.94,7,.32,8.64.08,1.65.24,6.76.86,8.64-.08C276,105.12,276.32,102.16,275.61,98.21Z" style="fill: rgb(255, 255, 255); stroke: rgb(38, 50, 56); stroke-linejoin: round; transform-origin: 265.165px 74.3117px;" id="el7lf8vtvkah6" class="animable"></path><path d="M272.86,80.92a23.47,23.47,0,0,0,.46-6V68.21H257v6.71a23.47,23.47,0,0,0,.46,6c.67,3.25-.12,12-.68,15.38s-.34,5.89,1.47,6.85c1.51.8,5.61.27,6.93.07,1.32.2,5.42.73,6.93-.07,1.81-1,2-3.48,1.47-6.85S272.19,84.17,272.86,80.92Z" style="fill: rgb(146, 227, 169); transform-origin: 265.173px 85.8939px;" id="el57ayoaf7cf" class="animable"></path><rect x="261.72" y="38.86" width="6.77" height="3.81" style="fill: rgb(38, 50, 56); stroke: rgb(38, 50, 56); stroke-linejoin: round; transform-origin: 265.105px 40.765px;" id="els35eskocgd" class="animable"></rect><line x1="255.37" y1="57.89" x2="275.11" y2="57.89" style="fill: rgb(255, 255, 255); stroke: rgb(38, 50, 56); stroke-linejoin: round; transform-origin: 265.24px 57.89px;" id="el98pzocqcln6" class="animable"></line><line x1="263.34" y1="71.99" x2="274.26" y2="71.99" style="fill: rgb(255, 255, 255); stroke: rgb(38, 50, 56); stroke-linejoin: round; transform-origin: 268.8px 71.99px;" id="elmpbcx9ofs3p" class="animable"></line><line x1="256.08" y1="71.99" x2="259.36" y2="71.99" style="fill: rgb(255, 255, 255); stroke: rgb(38, 50, 56); stroke-linejoin: round; transform-origin: 257.72px 71.99px;" id="elazecp9vxval" class="animable"></line></g><g id="freepik--Heart--inject-4" class="animable" style="transform-origin: 143.612px 123.725px;"><path d="M122.35,125.92h4.92l5.36-10,5.44,12,.93-2.47h6.81l7.25-16.47,4.67,15.34h8.53a14.49,14.49,0,0,0-.74-19.69h0a14.51,14.51,0,0,0-20.52,0l-1.5,1.5-1.5-1.51a14.51,14.51,0,0,0-20.52,20.51Z" style="fill: rgb(146, 227, 169); stroke: rgb(38, 50, 56); stroke-linejoin: round; transform-origin: 143.612px 114.15px;" id="elg9wkct8lll" class="animable"></path><polygon points="155.85 126.77 152.63 116.17 147.47 127.9 140.75 127.9 138.3 134.45 132.45 121.6 128.79 128.46 124.89 128.46 143.5 147.07 163.81 126.77 155.85 126.77" style="fill: rgb(146, 227, 169); stroke: rgb(38, 50, 56); stroke-linejoin: round; transform-origin: 144.35px 131.62px;" id="elu0s1sclya6" class="animable"></polygon></g><g id="freepik--Carrot--inject-4" class="animable" style="transform-origin: 83.6328px 220.535px;"><path d="M75.58,212.16s-.91-3-3.66-3.66-8.54.3-9.45-3.05,3.35-2.44,2.44-5.19-7.62-2.74-9.15-7.93.61-10.67,4.57-8.84,5.8,9.45,7.32,12.5,1.22-3.05,5.49-3.66,8.54,2.75,5.8,7-2.64,7.59-2.14,9.76c.35,1.51.44,1.39.44,1.39Z" style="fill: rgb(146, 227, 169); stroke: rgb(38, 50, 56); stroke-linejoin: round; transform-origin: 67.5343px 197.645px;" id="elejmo5lvr2z" class="animable"></path><path d="M60.34,191.38a11.78,11.78,0,0,1-1.78-4.06" style="fill: none; stroke: rgb(38, 50, 56); stroke-miterlimit: 10; transform-origin: 59.45px 189.35px;" id="elatd5586g3ek" class="animable"></path><path d="M76.58,211.44a16.29,16.29,0,0,0-3.85-7.13c-3.19-3.57-7.32-6-10.6-10.33-.27-.35-.51-.68-.74-1" style="fill: none; stroke: rgb(38, 50, 56); stroke-miterlimit: 10; transform-origin: 68.985px 202.21px;" id="elj7vvocekv1d" class="animable"></path><path d="M85.15,207.19s-13.94,2.79-13.94,16,37.63,39,40.42,34.15-10.91-33.76-14.4-40S90,206.49,85.15,207.19Z" style="fill: rgb(255, 255, 255); stroke: rgb(38, 50, 56); stroke-miterlimit: 10; transform-origin: 91.6061px 232.529px;" id="ellciy1icrci" class="animable"></path><path d="M75.28,232.89s4.88-7.32,9.45-9.45" style="fill: none; stroke: rgb(38, 50, 56); stroke-miterlimit: 10; transform-origin: 80.005px 228.165px;" id="elqi07tpdbxir" class="animable"></path><path d="M99.67,225.57a28.79,28.79,0,0,0-9.15,6.1" style="fill: none; stroke: rgb(38, 50, 56); stroke-miterlimit: 10; transform-origin: 95.095px 228.62px;" id="elwu348p9izl" class="animable"></path><path d="M93,248.14a17.48,17.48,0,0,1,7.32-8.23" style="fill: none; stroke: rgb(38, 50, 56); stroke-miterlimit: 10; transform-origin: 96.66px 244.025px;" id="elwhkjqf5q6k7" class="animable"></path><line x1="92.05" y1="219.17" x2="89" y2="221" style="fill: none; stroke: rgb(38, 50, 56); stroke-miterlimit: 10; transform-origin: 90.525px 220.085px;" id="elyoh8xjn5f" class="animable"></line><line x1="104.55" y1="237.77" x2="102.42" y2="238.38" style="fill: none; stroke: rgb(38, 50, 56); stroke-miterlimit: 10; transform-origin: 103.485px 238.075px;" id="elfsdbvnqxf9g" class="animable"></line></g><g id="freepik--Orange--inject-4" class="animable" style="transform-origin: 99.69px 320.73px;"><circle cx="99.69" cy="320.73" r="22.7" style="fill: rgb(146, 227, 169); stroke: rgb(38, 50, 56); stroke-linecap: round; stroke-linejoin: round; transform-origin: 99.69px 320.73px;" id="el05qdaa2e5n5w" class="animable"></circle><path d="M105.6,305c0,3.88-3.53,12.24-5.91,12.24s-5.91-8.36-5.91-12.24,3.53-5,5.91-5S105.6,301.1,105.6,305Z" style="fill: rgb(255, 255, 255); stroke: rgb(38, 50, 56); stroke-linecap: round; stroke-linejoin: round; transform-origin: 99.69px 308.62px;" id="elvus6lmelqir" class="animable"></path><path d="M89,307.73c3.36,1.94,9.19,8.33,8,10.39s-10.54,1.79-13.91-.15-2.58-5.57-1.39-7.63S85.65,305.79,89,307.73Z" style="fill: rgb(255, 255, 255); stroke: rgb(38, 50, 56); stroke-linecap: round; stroke-linejoin: round; transform-origin: 88.9175px 313.289px;" id="elld1w8j3rqoi" class="animable"></path><path d="M83.09,323.48c3.36-1.94,13-3.64,14.16-1.58s-4.88,9.88-8.24,11.82-6.12-.54-7.31-2.6S79.73,325.42,83.09,323.48Z" style="fill: rgb(255, 255, 255); stroke: rgb(38, 50, 56); stroke-linecap: round; stroke-linejoin: round; transform-origin: 89.0384px 327.692px;" id="elxabb3logm4" class="animable"></path><path d="M93.78,336.48c0-3.88,3.53-13.34,5.91-13.34s5.91,9.46,5.91,13.34-3.53,5-5.91,5S93.78,340.36,93.78,336.48Z" style="fill: rgb(255, 255, 255); stroke: rgb(38, 50, 56); stroke-linecap: round; stroke-linejoin: round; transform-origin: 99.69px 332.31px;" id="elm7juhk4l06r" class="animable"></path><path d="M110.37,333.72c-3.36-1.94-8.89-9.26-7.69-11.32s10.24-.86,13.6,1.08,2.59,5.57,1.4,7.64S113.73,335.66,110.37,333.72Z" style="fill: rgb(255, 255, 255); stroke: rgb(38, 50, 56); stroke-linecap: round; stroke-linejoin: round; transform-origin: 110.604px 327.874px;" id="elmtmcjujb2rc" class="animable"></path><path d="M116.29,318c-3.37,1.94-12.42,2.78-13.61.72s4.33-9,7.69-11,6.12.55,7.31,2.61S119.65,316,116.29,318Z" style="fill: rgb(255, 255, 255); stroke: rgb(38, 50, 56); stroke-linecap: round; stroke-linejoin: round; transform-origin: 110.607px 313.455px;" id="elccyowb3t9ff" class="animable"></path></g><g id="freepik--Plants--inject-4" class="animable" style="transform-origin: 257.099px 417.806px;"><path d="M433.5,399.44s.84-3.05.87-3.25c.32-2.32-.42-7-2.78-8.12a3.1,3.1,0,0,0-4.22,1.86c-.63,1.74.17,3.87,1.12,5.34C429.61,397,433.5,399.44,433.5,399.44Z" style="fill: rgb(38, 50, 56); transform-origin: 430.793px 393.618px;" id="el3lcyh1qrbyu" class="animable"></path><path d="M387,398.43c1.88.82,6.48.72,6.48.72s-1-3-1.08-3.19c-1-2.11-4.2-5.6-6.79-5.25a3.11,3.11,0,0,0-2.49,3.89C383.55,396.4,385.4,397.73,387,398.43Z" style="fill: rgb(38, 50, 56); transform-origin: 388.245px 394.92px;" id="elziwncr8w6m" class="animable"></path><path d="M388.59,411.75c2,.28,6.05-.91,6.37-1a54.71,54.71,0,0,0,2.49,6.88c.57,1.31,1.18,2.61,1.8,3.9-.37-.54-.71-1-.76-1.09-1.53-1.77-5.53-4.29-7.94-3.27a3.11,3.11,0,0,0-1.38,4.41c.89,1.62,3,2.42,4.76,2.67s5.27-.69,6.2-.95c.24.49.48,1,.73,1.48,1.19,2.37,2.38,4.72,3.49,7.07.39.83.74,1.66,1.09,2.48-.33-.48-.61-.89-.66-.95-1.53-1.77-5.53-4.29-7.94-3.26a3.1,3.1,0,0,0-1.38,4.4c.9,1.62,3,2.42,4.76,2.68s4.93-.6,6-.91c.34.86.68,1.72,1,2.57.18.58.4,1.13.55,1.72s.33,1.17.49,1.75c.27,1.12.55,2.27.79,3.37.17.76.31,1.49.46,2.22-.37-.82-1.15-2.43-1.23-2.55-1.24-2-4.81-5.08-7.35-4.43a3.08,3.08,0,0,0-2,4.14c.63,1.74,2.62,2.85,4.29,3.37,1.84.56,5.91,0,6.42,0,.24,1.21.47,2.4.66,3.52.42,2.34.73,4.46,1,6.27H413c-.29-1.88-.67-4.09-1.16-6.55-.24-1.24-.53-2.56-.83-3.91a33.75,33.75,0,0,0,3.58-1.68c1.34,1.45,4.77,3.15,5.22,3.37-.47,1.15-.93,2.26-1.39,3.3-.89,2.06-1.74,3.89-2.5,5.47h1.85c.64-1.45,1.35-3.07,2.08-4.86.48-1.17,1-2.42,1.46-3.72.49.11,4.52.93,6.4.5,1.71-.38,3.77-1.35,4.53-3a3.1,3.1,0,0,0-1.71-4.29c-2.48-.83-6.27,2-7.66,3.87-.08.11-.84,1.42-1.3,2.25.2-.53.4-1,.59-1.59.4-1.08.76-2.17,1.16-3.34.17-.57.34-1.15.52-1.74s.31-1.2.46-1.81c.34-1.42.61-2.87.86-4.34.94.34,4.32,1.52,6.07,1.4s3.93-.77,4.94-2.32a3.09,3.09,0,0,0-1-4.49c-2.33-1.2-6.5,1-8.16,2.66-.1.11-1.16,1.42-1.73,2.16.14-.89.29-1.77.4-2.67.32-2.6.57-5.24.82-7.87.08-.8.17-1.6.25-2.41.34.13,4.33,1.61,6.29,1.47,1.74-.12,3.92-.76,4.93-2.31a3.09,3.09,0,0,0-1-4.49c-2.33-1.2-6.5,1-8.16,2.66-.12.13-1.64,2-2,2.52.19-1.76.39-3.53.66-5.25a53.66,53.66,0,0,1,1.51-6.92c.15.06,4.31,1.63,6.32,1.48,1.74-.12,3.92-.76,4.93-2.31a3.09,3.09,0,0,0-1-4.49c-2.33-1.2-6.5,1-8.16,2.66-.11.11-1.26,1.55-1.8,2.25l-.13-.07a39.25,39.25,0,0,1,2.75-6.56c.59-1.17,1.23-2.25,1.87-3.29.74.37,4.16,2,6,2.11s4-.33,5.16-1.76a3.1,3.1,0,0,0-.54-4.58c-2.18-1.45-6.57.29-8.4,1.75-.1.08-1,1-1.68,1.67.29-.46.59-.94.88-1.38,1.1-1.65,2.2-3.1,3.19-4.37.57-.71,1.1-1.35,1.6-1.94.92,0,4.62-.13,6.25-.89s3.38-2.13,3.77-3.94a3.11,3.11,0,0,0-2.59-3.82c-2.61-.28-5.7,3.29-6.66,5.43-.08.18-1,3.22-1,3.22h.05c-.49.56-1,1.16-1.57,1.84-1,1.25-2.16,2.67-3.29,4.3a53.45,53.45,0,0,0-3.42,5.45,40.54,40.54,0,0,0-2.92,6.56s0,.06,0,.09c0-.77,0-2.92,0-3.08-.3-2.32-2.25-6.63-4.82-7.1A3.1,3.1,0,0,0,420,402.4c-.15,1.85,1.19,3.69,2.49,4.85,1.47,1.32,5.55,2.59,5.87,2.69a55.07,55.07,0,0,0-1.72,7.11c-.25,1.4-.46,2.82-.65,4.25,0-.66,0-1.26,0-1.34-.3-2.32-2.25-6.63-4.82-7.1a3.1,3.1,0,0,0-3.58,2.91c-.15,1.85,1.19,3.69,2.49,4.86s4.78,2.33,5.69,2.62c-.06.55-.14,1.1-.2,1.64-.32,2.63-.62,5.26-1,7.82-.13.91-.3,1.79-.46,2.68,0-.59,0-1.09,0-1.16-.3-2.32-2.24-6.63-4.82-7.1a3.1,3.1,0,0,0-3.58,2.91c-.15,1.84,1.19,3.69,2.49,4.85s4.44,2.22,5.53,2.58c-.19.9-.38,1.8-.6,2.67-.17.59-.29,1.17-.49,1.75s-.37,1.15-.56,1.72c-.39,1.08-.79,2.2-1.2,3.25-.28.72-.56,1.41-.84,2.11.14-.9.38-2.66.38-2.81a12,12,0,0,0-1.61-5.86,3.82,3.82,0,0,0,0-.68,3.1,3.1,0,0,0-3.79-2.63c-2.53.67-4.14,5.11-4.26,7.45,0,.14.08,1.64.16,2.59-.13-.55-.25-1.09-.39-1.65-.26-1.12-.56-2.23-.88-3.43-.17-.57-.34-1.15-.52-1.73s-.41-1.17-.61-1.77c-.5-1.37-1.08-2.73-1.68-4.09,1-.24,4.44-1.12,5.84-2.19s2.85-2.8,2.84-4.65a3.1,3.1,0,0,0-3.35-3.17c-2.6.28-4.86,4.43-5.34,6.72,0,.14-.18,1.82-.25,2.75-.37-.82-.74-1.63-1.14-2.44-1.16-2.35-2.42-4.68-3.65-7l-1.12-2.15c.34-.08,4.49-1,6.05-2.24,1.38-1.06,2.85-2.8,2.84-4.65a3.09,3.09,0,0,0-3.35-3.17c-2.6.28-4.86,4.43-5.33,6.72,0,.17-.26,2.59-.28,3.21-.82-1.58-1.63-3.16-2.35-4.75a53.71,53.71,0,0,1-2.56-6.6c.16,0,4.49-1,6.09-2.25,1.39-1.06,2.86-2.8,2.84-4.65a3.11,3.11,0,0,0-3.35-3.18c-2.6.29-4.86,4.44-5.33,6.73,0,.15-.2,2-.26,2.87l-.15,0a40.38,40.38,0,0,1-1.33-7c-.15-1.3-.22-2.55-.25-3.77.82-.1,4.59-.6,6.15-1.55s3.14-2.47,3.33-4.31a3.09,3.09,0,0,0-3-3.52c-2.61,0-5.32,3.87-6,6.09,0,.13-.3,1.4-.48,2.33,0-.55,0-1.12,0-1.65,0-2,.13-3.79.25-5.4.08-.91.17-1.73.26-2.5.76-.52,3.78-2.66,4.72-4.19s1.65-3.64,1-5.36a3.1,3.1,0,0,0-4.27-1.76c-2.32,1.21-2.94,5.89-2.55,8.2,0,.2.91,3.26.95,3.23l.05,0c-.1.74-.21,1.53-.3,2.4-.16,1.6-.32,3.42-.37,5.41a56.46,56.46,0,0,0,.15,6.42,41,41,0,0,0,1.19,7.09l0,.08c-.41-.65-1.63-2.42-1.73-2.54-1.53-1.77-5.53-4.29-7.94-3.27a3.11,3.11,0,0,0-1.38,4.41C384.72,410.7,386.86,411.5,388.59,411.75Z" style="fill: rgb(38, 50, 56); transform-origin: 416.813px 417.806px;" id="el7dtewz8r9ta" class="animable"></path><g id="elpmei78o855i"><path d="M387,398.43c1.88.82,6.48.72,6.48.72s-1-3-1.08-3.19c-1-2.11-4.2-5.6-6.79-5.25a3.11,3.11,0,0,0-2.49,3.89C383.55,396.4,385.4,397.73,387,398.43Z" style="fill: rgb(38, 50, 56); opacity: 0.3; transform-origin: 388.245px 394.92px;" class="animable"></path></g><g id="eljdn5dg701k"><path d="M433.5,399.44s.84-3.05.87-3.25c.32-2.32-.42-7-2.78-8.12a3.1,3.1,0,0,0-4.22,1.86c-.63,1.74.17,3.87,1.12,5.34C429.61,397,433.5,399.44,433.5,399.44Z" style="fill: rgb(38, 50, 56); opacity: 0.3; transform-origin: 430.793px 393.618px;" class="animable"></path></g><g id="elwewq9vbqke"><path d="M388.59,411.75c2,.28,6.05-.91,6.37-1a54.71,54.71,0,0,0,2.49,6.88c.57,1.31,1.18,2.61,1.8,3.9-.37-.54-.71-1-.76-1.09-1.53-1.77-5.53-4.29-7.94-3.27a3.11,3.11,0,0,0-1.38,4.41c.89,1.62,3,2.42,4.76,2.67s5.27-.69,6.2-.95c.24.49.48,1,.73,1.48,1.19,2.37,2.38,4.72,3.49,7.07.39.83.74,1.66,1.09,2.48-.33-.48-.61-.89-.66-.95-1.53-1.77-5.53-4.29-7.94-3.26a3.1,3.1,0,0,0-1.38,4.4c.9,1.62,3,2.42,4.76,2.68s4.93-.6,6-.91c.34.86.68,1.72,1,2.57.18.58.4,1.13.55,1.72s.33,1.17.49,1.75c.27,1.12.55,2.27.79,3.37.17.76.31,1.49.46,2.22-.37-.82-1.15-2.43-1.23-2.55-1.24-2-4.81-5.08-7.35-4.43a3.08,3.08,0,0,0-2,4.14c.63,1.74,2.62,2.85,4.29,3.37,1.84.56,5.91,0,6.42,0,.24,1.21.47,2.4.66,3.52.42,2.34.73,4.46,1,6.27H413c-.29-1.88-.67-4.09-1.16-6.55-.24-1.24-.53-2.56-.83-3.91a33.75,33.75,0,0,0,3.58-1.68c1.34,1.45,4.77,3.15,5.22,3.37-.47,1.15-.93,2.26-1.39,3.3-.89,2.06-1.74,3.89-2.5,5.47h1.85c.64-1.45,1.35-3.07,2.08-4.86.48-1.17,1-2.42,1.46-3.72.49.11,4.52.93,6.4.5,1.71-.38,3.77-1.35,4.53-3a3.1,3.1,0,0,0-1.71-4.29c-2.48-.83-6.27,2-7.66,3.87-.08.11-.84,1.42-1.3,2.25.2-.53.4-1,.59-1.59.4-1.08.76-2.17,1.16-3.34.17-.57.34-1.15.52-1.74s.31-1.2.46-1.81c.34-1.42.61-2.87.86-4.34.94.34,4.32,1.52,6.07,1.4s3.93-.77,4.94-2.32a3.09,3.09,0,0,0-1-4.49c-2.33-1.2-6.5,1-8.16,2.66-.1.11-1.16,1.42-1.73,2.16.14-.89.29-1.77.4-2.67.32-2.6.57-5.24.82-7.87.08-.8.17-1.6.25-2.41.34.13,4.33,1.61,6.29,1.47,1.74-.12,3.92-.76,4.93-2.31a3.09,3.09,0,0,0-1-4.49c-2.33-1.2-6.5,1-8.16,2.66-.12.13-1.64,2-2,2.52.19-1.76.39-3.53.66-5.25a53.66,53.66,0,0,1,1.51-6.92c.15.06,4.31,1.63,6.32,1.48,1.74-.12,3.92-.76,4.93-2.31a3.09,3.09,0,0,0-1-4.49c-2.33-1.2-6.5,1-8.16,2.66-.11.11-1.26,1.55-1.8,2.25l-.13-.07a39.25,39.25,0,0,1,2.75-6.56c.59-1.17,1.23-2.25,1.87-3.29.74.37,4.16,2,6,2.11s4-.33,5.16-1.76a3.1,3.1,0,0,0-.54-4.58c-2.18-1.45-6.57.29-8.4,1.75-.1.08-1,1-1.68,1.67.29-.46.59-.94.88-1.38,1.1-1.65,2.2-3.1,3.19-4.37.57-.71,1.1-1.35,1.6-1.94.92,0,4.62-.13,6.25-.89s3.38-2.13,3.77-3.94a3.11,3.11,0,0,0-2.59-3.82c-2.61-.28-5.7,3.29-6.66,5.43-.08.18-1,3.22-1,3.22h.05c-.49.56-1,1.16-1.57,1.84-1,1.25-2.16,2.67-3.29,4.3a53.45,53.45,0,0,0-3.42,5.45,40.54,40.54,0,0,0-2.92,6.56s0,.06,0,.09c0-.77,0-2.92,0-3.08-.3-2.32-2.25-6.63-4.82-7.1A3.1,3.1,0,0,0,420,402.4c-.15,1.85,1.19,3.69,2.49,4.85,1.47,1.32,5.55,2.59,5.87,2.69a55.07,55.07,0,0,0-1.72,7.11c-.25,1.4-.46,2.82-.65,4.25,0-.66,0-1.26,0-1.34-.3-2.32-2.25-6.63-4.82-7.1a3.1,3.1,0,0,0-3.58,2.91c-.15,1.85,1.19,3.69,2.49,4.86s4.78,2.33,5.69,2.62c-.06.55-.14,1.1-.2,1.64-.32,2.63-.62,5.26-1,7.82-.13.91-.3,1.79-.46,2.68,0-.59,0-1.09,0-1.16-.3-2.32-2.24-6.63-4.82-7.1a3.1,3.1,0,0,0-3.58,2.91c-.15,1.84,1.19,3.69,2.49,4.85s4.44,2.22,5.53,2.58c-.19.9-.38,1.8-.6,2.67-.17.59-.29,1.17-.49,1.75s-.37,1.15-.56,1.72c-.39,1.08-.79,2.2-1.2,3.25-.28.72-.56,1.41-.84,2.11.14-.9.38-2.66.38-2.81a12,12,0,0,0-1.61-5.86,3.82,3.82,0,0,0,0-.68,3.1,3.1,0,0,0-3.79-2.63c-2.53.67-4.14,5.11-4.26,7.45,0,.14.08,1.64.16,2.59-.13-.55-.25-1.09-.39-1.65-.26-1.12-.56-2.23-.88-3.43-.17-.57-.34-1.15-.52-1.73s-.41-1.17-.61-1.77c-.5-1.37-1.08-2.73-1.68-4.09,1-.24,4.44-1.12,5.84-2.19s2.85-2.8,2.84-4.65a3.1,3.1,0,0,0-3.35-3.17c-2.6.28-4.86,4.43-5.34,6.72,0,.14-.18,1.82-.25,2.75-.37-.82-.74-1.63-1.14-2.44-1.16-2.35-2.42-4.68-3.65-7l-1.12-2.15c.34-.08,4.49-1,6.05-2.24,1.38-1.06,2.85-2.8,2.84-4.65a3.09,3.09,0,0,0-3.35-3.17c-2.6.28-4.86,4.43-5.33,6.72,0,.17-.26,2.59-.28,3.21-.82-1.58-1.63-3.16-2.35-4.75a53.71,53.71,0,0,1-2.56-6.6c.16,0,4.49-1,6.09-2.25,1.39-1.06,2.86-2.8,2.84-4.65a3.11,3.11,0,0,0-3.35-3.18c-2.6.29-4.86,4.44-5.33,6.73,0,.15-.2,2-.26,2.87l-.15,0a40.38,40.38,0,0,1-1.33-7c-.15-1.3-.22-2.55-.25-3.77.82-.1,4.59-.6,6.15-1.55s3.14-2.47,3.33-4.31a3.09,3.09,0,0,0-3-3.52c-2.61,0-5.32,3.87-6,6.09,0,.13-.3,1.4-.48,2.33,0-.55,0-1.12,0-1.65,0-2,.13-3.79.25-5.4.08-.91.17-1.73.26-2.5.76-.52,3.78-2.66,4.72-4.19s1.65-3.64,1-5.36a3.1,3.1,0,0,0-4.27-1.76c-2.32,1.21-2.94,5.89-2.55,8.2,0,.2.91,3.26.95,3.23l.05,0c-.1.74-.21,1.53-.3,2.4-.16,1.6-.32,3.42-.37,5.41a56.46,56.46,0,0,0,.15,6.42,41,41,0,0,0,1.19,7.09l0,.08c-.41-.65-1.63-2.42-1.73-2.54-1.53-1.77-5.53-4.29-7.94-3.27a3.11,3.11,0,0,0-1.38,4.41C384.72,410.7,386.86,411.5,388.59,411.75Z" style="fill: rgb(38, 50, 56); opacity: 0.3; transform-origin: 416.813px 417.806px;" class="animable"></path></g><path d="M114.61,399.44s.84-3.05.87-3.25c.32-2.32-.42-7-2.78-8.12a3.1,3.1,0,0,0-4.22,1.86c-.63,1.74.17,3.87,1.12,5.34C110.72,397,114.61,399.44,114.61,399.44Z" style="fill: rgb(38, 50, 56); transform-origin: 111.903px 393.618px;" id="el57ljh4ppkmu" class="animable"></path><path d="M68.11,398.43c1.88.82,6.47.72,6.48.72s-1-3-1.08-3.19c-1-2.11-4.2-5.6-6.79-5.25a3.11,3.11,0,0,0-2.49,3.89C64.66,396.4,66.51,397.73,68.11,398.43Z" style="fill: rgb(38, 50, 56); transform-origin: 69.3547px 394.92px;" id="elxpmz1kvfz2m" class="animable"></path><path d="M69.69,411.75c2,.28,6.06-.91,6.38-1a54.71,54.71,0,0,0,2.49,6.88q.85,2,1.8,3.9c-.37-.54-.71-1-.77-1.09-1.53-1.77-5.52-4.29-7.93-3.27a3.11,3.11,0,0,0-1.38,4.41c.89,1.62,3,2.42,4.75,2.67s5.28-.69,6.21-.95c.24.49.48,1,.73,1.48,1.19,2.37,2.38,4.72,3.48,7.07.39.83.75,1.66,1.1,2.48-.33-.48-.62-.89-.67-.95-1.53-1.77-5.52-4.29-7.93-3.26a3.1,3.1,0,0,0-1.38,4.4c.89,1.62,3,2.42,4.75,2.68s4.93-.6,6-.91c.34.86.68,1.72,1,2.57.18.58.4,1.13.55,1.72s.33,1.17.49,1.75c.27,1.12.55,2.27.79,3.37.17.76.31,1.49.46,2.22-.38-.82-1.15-2.43-1.23-2.55-1.24-2-4.81-5.08-7.35-4.43a3.1,3.1,0,0,0-2,4.14c.64,1.74,2.63,2.85,4.3,3.37,1.84.56,5.91,0,6.42,0,.24,1.21.47,2.4.66,3.52.41,2.34.73,4.46,1,6.27h1.71c-.3-1.88-.67-4.09-1.16-6.55-.25-1.24-.53-2.56-.83-3.91a33.75,33.75,0,0,0,3.58-1.68c1.34,1.45,4.77,3.15,5.22,3.37-.47,1.15-.94,2.26-1.39,3.3-.89,2.06-1.74,3.89-2.5,5.47h1.85c.64-1.45,1.35-3.07,2.08-4.86.48-1.17,1-2.42,1.46-3.72.49.11,4.52.93,6.4.5,1.7-.38,3.77-1.35,4.53-3a3.1,3.1,0,0,0-1.71-4.29c-2.48-.83-6.27,2-7.66,3.87-.08.11-.84,1.42-1.3,2.25.2-.53.4-1,.59-1.59.4-1.08.76-2.17,1.16-3.34.17-.57.34-1.15.52-1.74s.3-1.2.46-1.81c.34-1.42.61-2.87.86-4.34.94.34,4.32,1.52,6.07,1.4s3.93-.77,4.94-2.32a3.09,3.09,0,0,0-1-4.49c-2.33-1.2-6.5,1-8.16,2.66-.1.11-1.16,1.42-1.73,2.16.14-.89.29-1.77.4-2.67.32-2.6.56-5.24.82-7.87.08-.8.17-1.6.25-2.41.34.13,4.32,1.61,6.28,1.47,1.75-.12,3.93-.76,4.94-2.31a3.09,3.09,0,0,0-1-4.49c-2.33-1.2-6.5,1-8.16,2.66-.12.13-1.64,2-2,2.52.18-1.76.39-3.53.66-5.25a53.66,53.66,0,0,1,1.51-6.92c.15.06,4.31,1.63,6.32,1.48,1.74-.12,3.92-.76,4.93-2.31a3.09,3.09,0,0,0-1-4.49c-2.33-1.2-6.5,1-8.16,2.66-.11.11-1.26,1.55-1.8,2.25l-.13-.07a39.25,39.25,0,0,1,2.75-6.56c.59-1.17,1.23-2.25,1.87-3.29.74.37,4.16,2,6,2.11s4-.33,5.16-1.76a3.1,3.1,0,0,0-.54-4.58c-2.18-1.45-6.57.29-8.4,1.75-.1.08-1,1-1.69,1.67l.89-1.38c1.1-1.65,2.2-3.1,3.19-4.37.57-.71,1.1-1.35,1.6-1.94.92,0,4.62-.13,6.24-.89s3.39-2.13,3.78-3.94a3.11,3.11,0,0,0-2.6-3.82c-2.6-.28-5.69,3.29-6.65,5.43-.08.18-1,3.22-1,3.22h0c-.49.56-1,1.16-1.57,1.84-1,1.25-2.16,2.67-3.3,4.3a55.25,55.25,0,0,0-3.41,5.45,40.54,40.54,0,0,0-2.92,6.56s0,.06,0,.09c0-.77,0-2.92,0-3.08-.3-2.32-2.25-6.63-4.82-7.1a3.1,3.1,0,0,0-3.58,2.91c-.15,1.85,1.19,3.69,2.49,4.85,1.47,1.32,5.55,2.59,5.87,2.69a53.47,53.47,0,0,0-1.72,7.11c-.25,1.4-.46,2.82-.65,4.25,0-.66,0-1.26,0-1.34-.3-2.32-2.24-6.63-4.82-7.1a3.1,3.1,0,0,0-3.57,2.91c-.15,1.85,1.18,3.69,2.49,4.86s4.77,2.33,5.69,2.62c-.06.55-.14,1.1-.2,1.64-.32,2.63-.62,5.26-1,7.82-.14.91-.3,1.79-.46,2.68,0-.59,0-1.09,0-1.16-.3-2.32-2.25-6.63-4.82-7.1A3.1,3.1,0,0,0,96.75,430c-.15,1.84,1.19,3.69,2.49,4.85s4.44,2.22,5.53,2.58c-.19.9-.38,1.8-.6,2.67-.17.59-.29,1.17-.49,1.75s-.38,1.15-.56,1.72c-.39,1.08-.79,2.2-1.2,3.25-.28.72-.56,1.41-.84,2.11.14-.9.38-2.66.38-2.81a12,12,0,0,0-1.61-5.86,3.82,3.82,0,0,0,0-.68A3.1,3.1,0,0,0,96,437c-2.54.67-4.14,5.11-4.26,7.45,0,.14.08,1.64.16,2.59-.13-.55-.25-1.09-.39-1.65-.26-1.12-.56-2.23-.88-3.43-.17-.57-.34-1.15-.52-1.73s-.41-1.17-.61-1.77c-.5-1.37-1.08-2.73-1.69-4.09,1-.24,4.45-1.12,5.84-2.19s2.86-2.8,2.85-4.65a3.1,3.1,0,0,0-3.35-3.17c-2.61.28-4.87,4.43-5.34,6.72,0,.14-.18,1.82-.25,2.75-.37-.82-.74-1.63-1.14-2.44-1.17-2.35-2.42-4.68-3.65-7l-1.13-2.15c.35-.08,4.5-1,6.06-2.24,1.38-1.06,2.85-2.8,2.84-4.65a3.09,3.09,0,0,0-3.35-3.17c-2.6.28-4.86,4.43-5.33,6.72,0,.17-.26,2.59-.28,3.21-.82-1.58-1.63-3.16-2.36-4.75a55.29,55.29,0,0,1-2.55-6.6c.16,0,4.49-1,6.09-2.25,1.38-1.06,2.85-2.8,2.84-4.65a3.11,3.11,0,0,0-3.35-3.18c-2.6.29-4.86,4.44-5.33,6.73,0,.15-.2,2-.26,2.87l-.15,0a39.46,39.46,0,0,1-1.33-7c-.15-1.3-.22-2.55-.25-3.77.82-.1,4.59-.6,6.15-1.55s3.14-2.47,3.33-4.31a3.09,3.09,0,0,0-3-3.52c-2.62,0-5.32,3.87-6,6.09,0,.13-.3,1.4-.48,2.33,0-.55,0-1.12,0-1.65,0-2,.12-3.79.25-5.4.08-.91.16-1.73.26-2.5.75-.52,3.78-2.66,4.72-4.19s1.65-3.64,1-5.36a3.11,3.11,0,0,0-4.27-1.76c-2.32,1.21-2.94,5.89-2.55,8.2,0,.2.91,3.26.95,3.23l.05,0c-.11.74-.21,1.53-.3,2.4-.16,1.6-.32,3.42-.37,5.41a56.46,56.46,0,0,0,.15,6.42A40.08,40.08,0,0,0,76,410.4l0,.08c-.41-.65-1.63-2.42-1.74-2.54-1.53-1.77-5.52-4.29-7.93-3.27a3.11,3.11,0,0,0-1.38,4.41C65.83,410.7,68,411.5,69.69,411.75Z" style="fill: rgb(38, 50, 56); transform-origin: 97.8579px 417.813px;" id="elirliswivqig" class="animable"></path><g id="el8hudxfjfon4"><path d="M68.11,398.43c1.88.82,6.47.72,6.48.72s-1-3-1.08-3.19c-1-2.11-4.2-5.6-6.79-5.25a3.11,3.11,0,0,0-2.49,3.89C64.66,396.4,66.51,397.73,68.11,398.43Z" style="fill: rgb(38, 50, 56); opacity: 0.3; transform-origin: 69.3547px 394.92px;" class="animable"></path></g><g id="elqme03vnnj2m"><path d="M114.61,399.44s.84-3.05.87-3.25c.32-2.32-.42-7-2.78-8.12a3.1,3.1,0,0,0-4.22,1.86c-.63,1.74.17,3.87,1.12,5.34C110.72,397,114.61,399.44,114.61,399.44Z" style="fill: rgb(38, 50, 56); opacity: 0.3; transform-origin: 111.903px 393.618px;" class="animable"></path></g><g id="elxrlfyj112n8"><path d="M69.69,411.75c2,.28,6.06-.91,6.38-1a54.71,54.71,0,0,0,2.49,6.88q.85,2,1.8,3.9c-.37-.54-.71-1-.77-1.09-1.53-1.77-5.52-4.29-7.93-3.27a3.11,3.11,0,0,0-1.38,4.41c.89,1.62,3,2.42,4.75,2.67s5.28-.69,6.21-.95c.24.49.48,1,.73,1.48,1.19,2.37,2.38,4.72,3.48,7.07.39.83.75,1.66,1.1,2.48-.33-.48-.62-.89-.67-.95-1.53-1.77-5.52-4.29-7.93-3.26a3.1,3.1,0,0,0-1.38,4.4c.89,1.62,3,2.42,4.75,2.68s4.93-.6,6-.91c.34.86.68,1.72,1,2.57.18.58.4,1.13.55,1.72s.33,1.17.49,1.75c.27,1.12.55,2.27.79,3.37.17.76.31,1.49.46,2.22-.38-.82-1.15-2.43-1.23-2.55-1.24-2-4.81-5.08-7.35-4.43a3.1,3.1,0,0,0-2,4.14c.64,1.74,2.63,2.85,4.3,3.37,1.84.56,5.91,0,6.42,0,.24,1.21.47,2.4.66,3.52.41,2.34.73,4.46,1,6.27h1.71c-.3-1.88-.67-4.09-1.16-6.55-.25-1.24-.53-2.56-.83-3.91a33.75,33.75,0,0,0,3.58-1.68c1.34,1.45,4.77,3.15,5.22,3.37-.47,1.15-.94,2.26-1.39,3.3-.89,2.06-1.74,3.89-2.5,5.47h1.85c.64-1.45,1.35-3.07,2.08-4.86.48-1.17,1-2.42,1.46-3.72.49.11,4.52.93,6.4.5,1.7-.38,3.77-1.35,4.53-3a3.1,3.1,0,0,0-1.71-4.29c-2.48-.83-6.27,2-7.66,3.87-.08.11-.84,1.42-1.3,2.25.2-.53.4-1,.59-1.59.4-1.08.76-2.17,1.16-3.34.17-.57.34-1.15.52-1.74s.3-1.2.46-1.81c.34-1.42.61-2.87.86-4.34.94.34,4.32,1.52,6.07,1.4s3.93-.77,4.94-2.32a3.09,3.09,0,0,0-1-4.49c-2.33-1.2-6.5,1-8.16,2.66-.1.11-1.16,1.42-1.73,2.16.14-.89.29-1.77.4-2.67.32-2.6.56-5.24.82-7.87.08-.8.17-1.6.25-2.41.34.13,4.32,1.61,6.28,1.47,1.75-.12,3.93-.76,4.94-2.31a3.09,3.09,0,0,0-1-4.49c-2.33-1.2-6.5,1-8.16,2.66-.12.13-1.64,2-2,2.52.18-1.76.39-3.53.66-5.25a53.66,53.66,0,0,1,1.51-6.92c.15.06,4.31,1.63,6.32,1.48,1.74-.12,3.92-.76,4.93-2.31a3.09,3.09,0,0,0-1-4.49c-2.33-1.2-6.5,1-8.16,2.66-.11.11-1.26,1.55-1.8,2.25l-.13-.07a39.25,39.25,0,0,1,2.75-6.56c.59-1.17,1.23-2.25,1.87-3.29.74.37,4.16,2,6,2.11s4-.33,5.16-1.76a3.1,3.1,0,0,0-.54-4.58c-2.18-1.45-6.57.29-8.4,1.75-.1.08-1,1-1.69,1.67l.89-1.38c1.1-1.65,2.2-3.1,3.19-4.37.57-.71,1.1-1.35,1.6-1.94.92,0,4.62-.13,6.24-.89s3.39-2.13,3.78-3.94a3.11,3.11,0,0,0-2.6-3.82c-2.6-.28-5.69,3.29-6.65,5.43-.08.18-1,3.22-1,3.22h0c-.49.56-1,1.16-1.57,1.84-1,1.25-2.16,2.67-3.3,4.3a55.25,55.25,0,0,0-3.41,5.45,40.54,40.54,0,0,0-2.92,6.56s0,.06,0,.09c0-.77,0-2.92,0-3.08-.3-2.32-2.25-6.63-4.82-7.1a3.1,3.1,0,0,0-3.58,2.91c-.15,1.85,1.19,3.69,2.49,4.85,1.47,1.32,5.55,2.59,5.87,2.69a53.47,53.47,0,0,0-1.72,7.11c-.25,1.4-.46,2.82-.65,4.25,0-.66,0-1.26,0-1.34-.3-2.32-2.24-6.63-4.82-7.1a3.1,3.1,0,0,0-3.57,2.91c-.15,1.85,1.18,3.69,2.49,4.86s4.77,2.33,5.69,2.62c-.06.55-.14,1.1-.2,1.64-.32,2.63-.62,5.26-1,7.82-.14.91-.3,1.79-.46,2.68,0-.59,0-1.09,0-1.16-.3-2.32-2.25-6.63-4.82-7.1A3.1,3.1,0,0,0,96.75,430c-.15,1.84,1.19,3.69,2.49,4.85s4.44,2.22,5.53,2.58c-.19.9-.38,1.8-.6,2.67-.17.59-.29,1.17-.49,1.75s-.38,1.15-.56,1.72c-.39,1.08-.79,2.2-1.2,3.25-.28.72-.56,1.41-.84,2.11.14-.9.38-2.66.38-2.81a12,12,0,0,0-1.61-5.86,3.82,3.82,0,0,0,0-.68A3.1,3.1,0,0,0,96,437c-2.54.67-4.14,5.11-4.26,7.45,0,.14.08,1.64.16,2.59-.13-.55-.25-1.09-.39-1.65-.26-1.12-.56-2.23-.88-3.43-.17-.57-.34-1.15-.52-1.73s-.41-1.17-.61-1.77c-.5-1.37-1.08-2.73-1.69-4.09,1-.24,4.45-1.12,5.84-2.19s2.86-2.8,2.85-4.65a3.1,3.1,0,0,0-3.35-3.17c-2.61.28-4.87,4.43-5.34,6.72,0,.14-.18,1.82-.25,2.75-.37-.82-.74-1.63-1.14-2.44-1.17-2.35-2.42-4.68-3.65-7l-1.13-2.15c.35-.08,4.5-1,6.06-2.24,1.38-1.06,2.85-2.8,2.84-4.65a3.09,3.09,0,0,0-3.35-3.17c-2.6.28-4.86,4.43-5.33,6.72,0,.17-.26,2.59-.28,3.21-.82-1.58-1.63-3.16-2.36-4.75a55.29,55.29,0,0,1-2.55-6.6c.16,0,4.49-1,6.09-2.25,1.38-1.06,2.85-2.8,2.84-4.65a3.11,3.11,0,0,0-3.35-3.18c-2.6.29-4.86,4.44-5.33,6.73,0,.15-.2,2-.26,2.87l-.15,0a39.46,39.46,0,0,1-1.33-7c-.15-1.3-.22-2.55-.25-3.77.82-.1,4.59-.6,6.15-1.55s3.14-2.47,3.33-4.31a3.09,3.09,0,0,0-3-3.52c-2.62,0-5.32,3.87-6,6.09,0,.13-.3,1.4-.48,2.33,0-.55,0-1.12,0-1.65,0-2,.12-3.79.25-5.4.08-.91.16-1.73.26-2.5.75-.52,3.78-2.66,4.72-4.19s1.65-3.64,1-5.36a3.11,3.11,0,0,0-4.27-1.76c-2.32,1.21-2.94,5.89-2.55,8.2,0,.2.91,3.26.95,3.23l.05,0c-.11.74-.21,1.53-.3,2.4-.16,1.6-.32,3.42-.37,5.41a56.46,56.46,0,0,0,.15,6.42A40.08,40.08,0,0,0,76,410.4l0,.08c-.41-.65-1.63-2.42-1.74-2.54-1.53-1.77-5.52-4.29-7.93-3.27a3.11,3.11,0,0,0-1.38,4.41C65.83,410.7,68,411.5,69.69,411.75Z" style="fill: rgb(38, 50, 56); opacity: 0.3; transform-origin: 97.8579px 417.813px;" class="animable"></path></g></g><g id="freepik--character-2--inject-4" class="animable" style="transform-origin: 304.921px 300.268px;"><path d="M338.36,443.75l7,12.77a11,11,0,0,0,7.56-1c3.91-2.09,8.08-5.22,10.95-6.26s11.47-6.52,13.82-10.69,3.12-7-.79-6a78.43,78.43,0,0,1-10.16,2.08c-3.65.53-11.21,0-11.21,0Z" style="fill: rgb(255, 255, 255); stroke: rgb(38, 50, 56); stroke-miterlimit: 10; transform-origin: 359.001px 444.58px;" id="elhr296cbtic" class="animable"></path><path d="M248.49,439.75a27.69,27.69,0,0,0,7.82,7.82c4.7,2.87,12.52,4.7,12,7.3s-6,4.69-11.46,3.91a150.71,150.71,0,0,1-21.64-5.73c-3.13-1.31-4.95-1.57-4.95-3.65S236,432.72,236,432.72Z" style="fill: rgb(255, 255, 255); stroke: rgb(38, 50, 56); stroke-miterlimit: 10; transform-origin: 249.297px 445.833px;" id="elm3t02e8sihs" class="animable"></path><path d="M278.4,208s-9.65,10.9-13.31,18-18.66,30.39-16.57,33.9,12.85,14.73,18.35,18.5,10.3,7.83,10.3,7.83l4.16-3.14s-7.58-10.68-12-17.93-7.08-11-7.08-11,12.22-15,15.33-18.91,4.2-21,4.34-22.53S280.86,206,278.4,208Z" style="fill: rgb(255, 255, 255); stroke: rgb(38, 50, 56); stroke-miterlimit: 10; transform-origin: 265.126px 246.889px;" id="elcmh3nxv5irw" class="animable"></path><path d="M311.86,155.1s3.41,3.67,3.7,7.56-.74,7.64,1.73,9.29,5.37,2,3.89,3.11-4.21,3.18-4.21,3.18-1.21,11.85-2.47,12.47-11.63,1.91-11.63,1.91-3.71,6.28-2.92,9.88,7.15,15.42,11.08,22.71,4.15,10.14,2.59,17.32-6.48,37.7-6.22,42.65,3.91,12.25,3.91,12.25,20.86,57.35,23.2,63.86,1.57,21.9,3.13,27.63,11.73,25.81,13.3,29.46,7.49,11.55,7.49,11.55l1.3,2.61s-3.65,3.13-7.82,6.25a40.18,40.18,0,0,1-11,5.74c-1.82.52-4.17,1.3-4.17,1.3s-8-14.16-11.14-21.72-8.34-15.9-9.38-26.84-4.43-20.86-7.3-29.46-12.25-23.72-12.25-23.72-7.56,30.24-13.56,37.54-14.59,26.84-20.07,36.75-8.08,12.25-8.6,16.94a36,36,0,0,1-1.82,8.08s-9.13-1.82-13.82-4.95a56.47,56.47,0,0,1-8.6-7.3s13-27.89,19.29-40.14,13.81-39.36,14.07-41.19,2.87-17.2,3.91-20.59,1.31-3.65,1.05-5.47-7.3-12.77-4.44-23.46,10.64-21.18,10.64-21.18,4.56-16,4.52-20.2-4.42-13.79-5.63-23.11-.63-22.69,3.58-29.28,11-17,11.38-19.39,1.67-5.62-1.54-13.74,4.36-15.22,9.63-18.23S311.86,155.1,311.86,155.1Z" style="fill: rgb(255, 255, 255); stroke: rgb(38, 50, 56); stroke-miterlimit: 10; transform-origin: 294.965px 299.822px;" id="elkdbe6b71wx" class="animable"></path><ellipse cx="312.64" cy="170.2" rx="0.89" ry="2.22" style="fill: rgb(38, 50, 56); transform-origin: 312.64px 170.2px;" id="elcmh010hd45u" class="animable"></ellipse><path d="M310.28,166.51s1.77-2.07,3.55-.3" style="fill: none; stroke: rgb(38, 50, 56); stroke-miterlimit: 10; transform-origin: 312.055px 166.002px;" id="elz2m28gfiu88" class="animable"></path><path d="M316.19,182.18a4.29,4.29,0,0,1-4.43-2.37" style="fill: none; stroke: rgb(38, 50, 56); stroke-miterlimit: 10; transform-origin: 313.975px 181.014px;" id="eliq3qdw1mcuo" class="animable"></path><line x1="305.32" y1="310.46" x2="297.5" y2="340.96" style="fill: none; stroke: rgb(38, 50, 56); stroke-miterlimit: 10; transform-origin: 301.41px 325.71px;" id="elwoutykj95r8" class="animable"></line><path d="M324.61,381.36S323,402.74,322,410" style="fill: none; stroke: rgb(38, 50, 56); stroke-miterlimit: 10; transform-origin: 323.305px 395.68px;" id="elwym77t5tfch" class="animable"></path><path d="M327.74,393.62s-2.35,16.94-2.35,18.5" style="fill: none; stroke: rgb(38, 50, 56); stroke-miterlimit: 10; transform-origin: 326.565px 402.87px;" id="elo9fjnmtqqkh" class="animable"></path><path d="M297.74,172.61s-4.4-6.47-7.72-1.78-.34,9.43,1.53,10.08a3.6,3.6,0,0,0,2.88,0,33.66,33.66,0,0,1-4.8,9.25c-3.33,4.43-12.16,8.74-19.32,7.44s-20.65-14.16-18.06-25.07,5.33-16.33,8.45-16.57,5,3.82,8.63,3.55,8.08-14.45,20.94-17.23,23.78,3.47,25.15,7.81-.54,6.84-1.84,6.93-6.47-2.66-9.46-.61-1,4.26-.6,6.06-2.63,3.33-2.49,5.15.55,3.88-.49,4A9.86,9.86,0,0,0,297.74,172.61Z" style="fill: rgb(38, 50, 56); stroke: rgb(38, 50, 56); stroke-miterlimit: 10; transform-origin: 283.909px 169.713px;" id="elfvvcrfwiodp" class="animable"></path><path d="M311,225.21c-1-1.87-2.18-4-3.37-6.29a3.54,3.54,0,0,1-1.25.36c-3.38.25-11-10.95-18.64-15.35-3.62-2.09-6.47-1.65-8.47-.61-.35.56-.7,1.1-1,1.63a10.28,10.28,0,0,1,9.64.8c7.39,4.42,13.3,13.65,14.82,20.07s-5.81,16.9-15.56,19.45c-6.16,1.61-10.21-.81-12.82-5.53,1.68,8,4.91,15.59,5,19.18,0,4.18-4.52,20.2-4.52,20.2s-.4.7-1,1.9c12.31,3.62,27.85,5.36,33.87,4.16.66-9.32,4.66-36.46,6-42.65C315.18,235.35,315,232.5,311,225.21Z" style="fill: rgb(38, 50, 56); stroke: rgb(38, 50, 56); stroke-miterlimit: 10; transform-origin: 294.191px 244.004px;" id="elhc27c6v8wc" class="animable"></path><path d="M284.58,206.78s7.08.26,10.62,5.74,19.63,28.61,21.88,30.8,5.42,6.13,5.42,6.13,25.05-14.66,29.5-18.12,8.7-9.53,8.7-9.53.48-4.22.64-5.54,4.06-1.61,4.06-1.61,2.63-3.33,4.73-3.22,2.59,3.2,2.59,3.2,2.71,4.77,2.88,7.11-4.68,7.4-6.7,8.34a36.57,36.57,0,0,1-5.89,1.74s-16.12,18.7-21.46,24.33a78.51,78.51,0,0,1-16.07,12.42c-2,.94-10.17-3.17-11.52-3.85s-35.63-32.91-35.63-32.91" style="fill: rgb(255, 255, 255); stroke: rgb(38, 50, 56); stroke-miterlimit: 10; transform-origin: 326.967px 237.745px;" id="el745ra42gny6" class="animable"></path></g><g id="freepik--character-1--inject-4" class="animable" style="transform-origin: 217.669px 299.133px;"><path d="M230,217.92s8.8,13.9,12.77,19.86a117.29,117.29,0,0,0,10.79,13.06s7.09-6.25,12.77-11.92,8.51-15.33,8.51-15.33-3.41-6-3.41-7.09,3.13-4.54,4-5.39a2.74,2.74,0,0,1,2.27-.57,3.86,3.86,0,0,1,3.12-1.14c2.27,0,7.66,5.4,8.23,9.37s-3.4,8.23-5.11,10.78-9.36,16.75-12.49,23.56-13.62,18.45-17,19-19.87-13.34-21.86-15.89,0-23.27-1.42-26.68S230,217.92,230,217.92Z" style="fill: rgb(255, 255, 255); stroke: rgb(38, 50, 56); stroke-miterlimit: 10; transform-origin: 259.544px 240.754px;" id="ell3gcag6ymu" class="animable"></path><path d="M277.71,210.54s7.09,5.39,4.26,6.53a3,3,0,0,1-4-1.71s2.84,3.41,1.71,6.25" style="fill: none; stroke: rgb(38, 50, 56); stroke-miterlimit: 10; transform-origin: 280.174px 216.075px;" id="elgpkzwyodqbv" class="animable"></path><path d="M280.26,217.63s4,4,6,4.26" style="fill: none; stroke: rgb(38, 50, 56); stroke-miterlimit: 10; transform-origin: 283.26px 219.76px;" id="ellq677vr8ruf" class="animable"></path><path d="M191.15,319.24s-9.37,36-12.49,40-18.16,17.31-21,25-16.59,38-18.29,42.83-3.12,6.24-3.12,6.24l11.92,6.53s12.61-23.25,19.42-31.76,15.61-21.86,21.86-28.1,24.69-32.07,24.69-32.07Z" style="fill: rgb(255, 255, 255); stroke: rgb(38, 50, 56); stroke-miterlimit: 10; transform-origin: 175.195px 379.54px;" id="elgdqtysg4mqr" class="animable"></path><path d="M214.14,347.9l-23-28.66s-8.28,31.86-11.87,39a36.13,36.13,0,0,0,18.55,11.69C205.33,360.22,214.14,347.9,214.14,347.9Z" style="fill: rgb(38, 50, 56); stroke: rgb(38, 50, 56); stroke-miterlimit: 10; transform-origin: 196.705px 344.585px;" id="elvrt8jyleg6k" class="animable"></path><path d="M148.17,439.83s2.92-5.15,6.35-12a50.31,50.31,0,0,1-13.17-6.06c-1,2.87-1.61,4.22-2,5.29-1.71,4.83-3.12,6.24-3.12,6.24Z" style="fill: rgb(255, 255, 255); stroke: rgb(38, 50, 56); stroke-miterlimit: 10; transform-origin: 145.375px 430.8px;" id="eltx54xvn2ua9" class="animable"></path><path d="M153.27,444.37s-1.13-.56-1.42-5.11-.85-7.66-2.55-4.82l-1.7,2.84-11.07-6.53s-2,1.7-2,3.41-7.94,9.36-6.24,11.63,7.66,2.27,13.62,6.25,7.1,6,14.48,6.24,8.79-2.27,8.79-3.69-6-3.69-7.94-5.68A55.91,55.91,0,0,1,153.27,444.37Z" style="fill: rgb(255, 255, 255); stroke: rgb(38, 50, 56); stroke-miterlimit: 10; transform-origin: 146.616px 444.523px;" id="el5pbhqshcael" class="animable"></path><path d="M165.19,454.59c0-.36-.37-.76-1-1.21-1.45.93-4.67,2.27-10.67,1.49-8.8-1.13-8.8-3.69-13.62-7.94-3.24-2.86-8-4.18-10.8-4.74-.91,1.51-1.4,2.85-.84,3.6,1.7,2.27,7.66,2.27,13.62,6.25s7.1,6,14.48,6.24S165.19,456,165.19,454.59Z" style="fill: rgb(255, 255, 255); stroke: rgb(38, 50, 56); stroke-miterlimit: 10; transform-origin: 146.606px 450.243px;" id="elraxgmhlkeh" class="animable"></path><path d="M187.74,298.52s-3.12,10.21,2.56,24.69,28.94,39.73,36.32,46l7.38,6.25s1.14,17,9.37,28.66l28.09,39.74,9.37-7.1s-7.66-9.08-9.93-17.88-14.48-35.19-16.46-44-9.37-24.12-10.22-25.54S228,319,228,319L230.31,305Z" style="fill: rgb(255, 255, 255); stroke: rgb(38, 50, 56); stroke-miterlimit: 10; transform-origin: 233.857px 371.19px;" id="elfgqhavbwj2m" class="animable"></path><path d="M225.59,368.28c2.22-3,8.61-9.81,22.2-11.49-1.74-3.9-3.22-6.88-3.57-7.47C243.37,347.9,228,319,228,319L230.31,305l-42.57-6.52s-3.12,10.21,2.56,24.69C195.73,337.07,217.29,360.81,225.59,368.28Z" style="fill: rgb(38, 50, 56); stroke: rgb(38, 50, 56); stroke-miterlimit: 10; transform-origin: 217.337px 333.38px;" id="elmfij7dsqqlh" class="animable"></path><path d="M262.57,431.24c5,7.11,8.89,12.59,8.89,12.59l9.37-7.1a63.73,63.73,0,0,1-7.8-12.18A38.58,38.58,0,0,1,262.57,431.24Z" style="fill: rgb(255, 255, 255); stroke: rgb(38, 50, 56); stroke-miterlimit: 10; transform-origin: 271.7px 434.19px;" id="elh2w13z4s6ev" class="animable"></path><path d="M280.26,428.78s-4.25-4-3.69,1.14,2.27,6.81,2.27,6.81-11.63,5.39-10.5,7.95a20,20,0,0,0,2.56,4.25S278,460,281.11,458.87s8.52-8.23,13.34-10.5,10.79-9.94,12.21-14.48.56-6.24-2.84-4.26-7.95,4.55-13.06,4.55a15.72,15.72,0,0,1-8.79-2.84Z" style="fill: rgb(255, 255, 255); stroke: rgb(38, 50, 56); stroke-miterlimit: 10; transform-origin: 287.789px 443.124px;" id="elqfl6u4f9mms" class="animable"></path><path d="M305.87,428.83a1.68,1.68,0,0,0-.06.24c-1.71,7.66-11.36,13.05-15.9,17.31-3.72,3.48-10.85,8.3-13.32,9.93,1.68,1.73,3.37,3,4.52,2.56,3.13-1.14,8.52-8.23,13.34-10.5s10.79-9.94,12.21-14.48C307.73,430.47,307.5,428.66,305.87,428.83Z" style="fill: rgb(255, 255, 255); stroke: rgb(38, 50, 56); stroke-miterlimit: 10; transform-origin: 291.952px 443.888px;" id="elbdxfpvtlp8" class="animable"></path><path d="M239.57,150.8a27.63,27.63,0,0,1,3.06,9.19c.66,5,.44,7.89,2.41,10.3s3.73,3.94,3.29,5.25-3.51,2.85-3.51,2.85-2.62,10.73-5,12.48-10.52-.43-10.52-.43a17.29,17.29,0,0,0-2.84,10.07c.22,5.91,5,15.11,7.88,23.65s3.29,15.77.44,27.16-3.94,35.92-3.72,42.49.21,10.07.21,10.07,3.29,3.72-11.82,3.72-29.35-5.69-30.88-6.35a3.64,3.64,0,0,1-2-1.75s3.5-38.33,2.41-41.39S186.79,241,186.79,241s.43-23.88,7.22-32.86,14.68-12.92,17.52-17.52a14.83,14.83,0,0,0,1.76-9.85,34.87,34.87,0,0,1-10.95-16c-3.51-10.51,6.35-21.9,13.57-24.53s22.12.88,24.31,3.51S239.57,150.8,239.57,150.8Z" style="fill: rgb(255, 255, 255); stroke: rgb(38, 50, 56); stroke-miterlimit: 10; transform-origin: 217.484px 223.455px;" id="el5okks3v20e2" class="animable"></path><path d="M240.22,143.79c-2.19-2.63-17.08-6.14-24.31-3.51s-17.08,14-13.57,24.53a34.87,34.87,0,0,0,10.95,16s.06.31.12.84a31.93,31.93,0,0,0,5.35-2.15,16.64,16.64,0,0,1-2.41-2.19c-.65-.88-2.41-7,1.1-8.11s4.38,1.32,5,2.63,2.41,0,3.07-.66.22-5.69.22-5.69a37.09,37.09,0,0,0,4.6-4.16c2-2.19-5.48-7.23-5.48-7.23s5.48-.22,8.33-.66a21,21,0,0,0,6.35-2.62S242.41,146.42,240.22,143.79Z" style="fill: rgb(38, 50, 56); stroke: rgb(38, 50, 56); stroke-miterlimit: 10; transform-origin: 221.325px 160.5px;" id="el8t39cs7wc9k" class="animable"></path><polygon points="229.27 190.44 223.8 187.81 227.52 193.72 229.27 190.44" style="fill: rgb(38, 50, 56); stroke: rgb(38, 50, 56); stroke-miterlimit: 10; transform-origin: 226.535px 190.765px;" id="elgz83qbvgo6" class="animable"></polygon><path d="M241.76,168.91c.09,1.21-.18,2.21-.6,2.25s-.84-.92-.93-2.13.17-2.21.59-2.24S241.66,167.71,241.76,168.91Z" style="fill: rgb(38, 50, 56); transform-origin: 240.995px 168.975px;" id="elcmj3mi5mjbs" class="animable"></path><path d="M238.25,164.81s1.54-2.41,3.07-1.09" style="fill: none; stroke: rgb(38, 50, 56); stroke-miterlimit: 10; transform-origin: 239.785px 164.067px;" id="eljq1d7uio0mj" class="animable"></path><path d="M242.41,181.46s-3.28-1.32-3.28-2.19" style="fill: none; stroke: rgb(38, 50, 56); stroke-miterlimit: 10; transform-origin: 240.77px 180.365px;" id="elfseusllqbwf" class="animable"></path><path d="M231.25,303.88s0-3.5-.22-10.07.87-31.1,3.72-42.49,2.41-18.62-.44-27.16c-.93-2.8-2.08-5.67-3.21-8.48-5.11,1.06-10.91-6.69-14.41-12.52a12,12,0,0,0-11.64-6l-.06,0c-.72.61-1.47,1.24-2.25,1.92a17.38,17.38,0,0,1,12,10.33c4.26,10.22-2.83,23-11.35,27-6.2,2.9-13,.22-16.23-1.44-.29,3.64-.33,6.11-.33,6.11s1.09,14,2.19,17.08-2.41,41.39-2.41,41.39a3.64,3.64,0,0,0,2,1.75c1.53.66,15.77,6.35,30.88,6.35S231.25,303.88,231.25,303.88Z" style="fill: rgb(146, 227, 169); stroke: rgb(38, 50, 56); stroke-miterlimit: 10; transform-origin: 211.645px 252.374px;" id="el8rt5doce83f" class="animable"></path><path d="M206.19,201.74s-11.35-.57-16.18,5.39-28.09,41.72-29.23,44.56,1.7,7.09,1.7,7.09,35.48,31.79,36.61,32.07,7.67,7.95,9.65,8.52,8.52-1.14,9.37-2,4.82-4.54,3.12-6-2.84-2.27-2.84-3.12.85-4-2.27-4.54-12.77-.57-12.77-.57-4.82-5.67-11.07-14.47a170.58,170.58,0,0,1-9.93-15.61l26.11-25.26" style="fill: rgb(255, 255, 255); stroke: rgb(38, 50, 56); stroke-miterlimit: 10; transform-origin: 191.079px 250.605px;" id="el6ldz9tm91g3" class="animable"></path></g><defs>     <filter id="active" height="200%">         <feMorphology in="SourceAlpha" result="DILATED" operator="dilate" radius="2"></feMorphology>                <feFlood flood-color="#32DFEC" flood-opacity="1" result="PINK"></feFlood>        <feComposite in="PINK" in2="DILATED" operator="in" result="OUTLINE"></feComposite>        <feMerge>            <feMergeNode in="OUTLINE"></feMergeNode>            <feMergeNode in="SourceGraphic"></feMergeNode>        </feMerge>    </filter>    <filter id="hover" height="200%">        <feMorphology in="SourceAlpha" result="DILATED" operator="dilate" radius="2"></feMorphology>                <feFlood flood-color="#ff0000" flood-opacity="0.5" result="PINK"></feFlood>        <feComposite in="PINK" in2="DILATED" operator="in" result="OUTLINE"></feComposite>        <feMerge>            <feMergeNode in="OUTLINE"></feMergeNode>            <feMergeNode in="SourceGraphic"></feMergeNode>        </feMerge>            <feColorMatrix type="matrix" values="0   0   0   0   0                0   1   0   0   0                0   0   0   0   0                0   0   0   1   0 "></feColorMatrix>    </filter></defs></svg>